<?xml version="1.0" standalone="no"?>
<!DOCTYPE svg PUBLIC "-//W3C//DTD SVG 20010904//EN"
 "http://www.w3.org/TR/2001/REC-SVG-20010904/DTD/svg10.dtd">
<svg version="1.0" xmlns="http://www.w3.org/2000/svg"
 width="512.000000pt" height="512.000000pt" viewBox="0 0 512.000000 512.000000"
 preserveAspectRatio="xMidYMid meet">
<metadata>
Created by potrace 1.14, written by Peter Selinger 2001-2017
</metadata>
<g transform="translate(0.000000,512.000000) scale(0.100000,-0.100000)"
fill="#000000" stroke="none">
<path d="M3604 5082 c-28 -14 -529 -509 -1692 -1674 -909 -910 -1670 -1679
-1693 -1709 -55 -74 -133 -235 -166 -344 -25 -83 -27 -104 -27 -275 -1 -173 1
-192 27 -285 53 -191 143 -340 289 -480 175 -169 340 -252 572 -290 167 -27
320 -15 498 41 96 30 231 99 303 156 28 22 796 785 1708 1696 1567 1566 1658
1659 1672 1706 8 27 15 68 15 91 0 71 -38 195 -94 310 -212 431 -703 892
-1106 1040 -102 37 -245 45 -306 17z m458 -250 c120 -61 229 -145 390 -301
207 -201 312 -331 386 -478 76 -150 40 -207 -98 -150 -241 100 -684 534 -816
802 -79 160 -26 209 138 127z m-356 -477 c140 -211 382 -457 621 -632 45 -33
103 -71 128 -84 25 -13 45 -26 45 -29 0 -3 -77 -84 -171 -180 l-171 -175 -13
26 c-36 68 -285 151 -660 218 -50 10 -158 23 -337 41 -136 14 -308 12 -411 -5
-48 -8 -93 -17 -100 -21 -19 -11 251 264 628 638 l349 348 20 -33 c11 -17 43
-68 72 -112z"/>
</g>
</svg>
